<svg width="105" height="48" viewBox="0 0 105 48" fill="none" xmlns="http://www.w3.org/2000/svg">
<path fill-rule="evenodd" clip-rule="evenodd" d="M81 23.5933C81 10.3384 91.7452 -0.40674 105 -0.406738L81 -0.406741L81 23.5933Z" fill="#57ACEB"/>
<path d="M81 19.7966C81 35.3729 68.3729 48 52.7966 48V48C37.2203 48 24.5932 35.3729 24.5932 19.7966L24.5932 -0.406762L81 -0.406757L81 19.7966Z" fill="#57ACEB"/>
<path fill-rule="evenodd" clip-rule="evenodd" d="M62.6419 23.3136C62.9825 23.7388 62.9248 24.3692 62.5129 24.7216L53.3452 32.566C52.9774 32.8808 52.4427 32.8716 52.0858 32.5445L43.1916 24.3913C42.792 24.025 42.7558 23.393 43.1108 22.9797C43.4657 22.5663 44.0774 22.5282 44.477 22.8945L52.7542 30.2963L61.2794 23.1818C61.6913 22.8294 62.3013 22.8884 62.6419 23.3136Z" fill="white"/>
<path fill-rule="evenodd" clip-rule="evenodd" d="M24.5933 23.5933C24.5933 10.3384 13.8481 -0.406737 0.593264 -0.406738L24.5933 -0.406736L24.5933 23.5933Z" fill="#57ACEB"/>
</svg>
